<svg width="347" height="285" viewBox="0 0 347 285" fill="none" xmlns="http://www.w3.org/2000/svg">
<mask id="mask0_103_18" style="mask-type:alpha" maskUnits="userSpaceOnUse" x="0" y="0" width="347" height="285">
<path d="M307.05 186.943C218.05 353.943 -117.95 290.943 43.0501 118.943C83.0501 64.9434 468.65 -153.857 307.05 186.943Z" fill="url(#paint0_linear_103_18)"/>
</mask>
<g mask="url(#mask0_103_18)">
<path d="M307.05 186.943C218.05 353.943 -117.95 290.943 43.0501 118.943C83.0501 64.9434 468.65 -153.857 307.05 186.943Z" fill="url(#paint1_linear_103_18)"/>
<ellipse cx="267" cy="152.5" rx="58" ry="57.5" fill="url(#paint2_linear_103_18)"/>
<ellipse cx="76" cy="178.5" rx="58" ry="57.5" fill="url(#paint3_linear_103_18)"/>
<ellipse cx="219" cy="-0.5" rx="58" ry="57.5" fill="url(#paint4_linear_103_18)"/>
</g>
<defs>
<linearGradient id="paint0_linear_103_18" x1="102" y1="142" x2="173.207" y2="284.71" gradientUnits="userSpaceOnUse">
<stop stop-color="#92E7F9"/>
<stop offset="1" stop-color="#188EA8"/>
</linearGradient>
<linearGradient id="paint1_linear_103_18" x1="102" y1="142" x2="173.207" y2="284.71" gradientUnits="userSpaceOnUse">
<stop stop-color="#92E7F9"/>
<stop offset="1" stop-color="#188EA8"/>
</linearGradient>
<linearGradient id="paint2_linear_103_18" x1="209" y1="110" x2="290" y2="238" gradientUnits="userSpaceOnUse">
<stop offset="0.282849" stop-color="#CCA4F4"/>
<stop offset="1" stop-color="#2E015A"/>
</linearGradient>
<linearGradient id="paint3_linear_103_18" x1="65" y1="107" x2="110" y2="265" gradientUnits="userSpaceOnUse">
<stop offset="0.381974" stop-color="#F8BCC6"/>
<stop offset="1" stop-color="#CE0838"/>
</linearGradient>
<linearGradient id="paint4_linear_103_18" x1="196" y1="-58" x2="214" y2="91" gradientUnits="userSpaceOnUse">
<stop offset="0.381974" stop-color="#DDF8BC"/>
<stop offset="1" stop-color="#77CE08"/>
</linearGradient>
</defs>
</svg>
